<svg xmlns="http://www.w3.org/2000/svg" version="1.1" xmlns:xlink="http://www.w3.org/1999/xlink" xmlns:svgjs="http://svgjs.com/svgjs" width="1440" height="560" preserveAspectRatio="none" viewBox="0 0 1440 560"><g mask="url(&quot;#SvgjsMask1059&quot;)" fill="none"><rect width="1440" height="560" x="0" y="0" fill="rgba(8, 32, 50, 1)"></rect><path d="M1464 560L0 560 L0 191.47Q80.03 151.5, 120 231.53Q166.08 157.61, 240 203.68Q265.64 109.33, 360 134.97Q403.92 106.89, 432 150.81Q483.04 129.85, 504 180.89Q574.35 131.24, 624 201.58Q640.29 145.88, 696 162.17Q742.38 88.56, 816 134.94Q844.78 91.72, 888 120.5Q974.7 87.2, 1008 173.9Q1060.21 106.12, 1128 158.33Q1195.85 154.18, 1200 222.02Q1214.02 164.04, 1272 178.06Q1286.7 120.76, 1344 135.46Q1416.6 88.06, 1464 160.65z" fill="rgba(13, 52, 81, 1)"></path><path d="M1536 560L0 560 L0 297.7Q37.86 263.56, 72 301.42Q104.1 213.52, 192 245.63Q241.32 222.95, 264 272.28Q316.44 252.71, 336 305.15Q412.31 261.45, 456 337.76Q470.65 280.41, 528 295.07Q556.36 251.43, 600 279.79Q632.63 192.43, 720 225.06Q763.86 196.92, 792 240.77Q866.84 243.61, 864 318.45Q856.11 238.56, 936 230.66Q989.74 212.39, 1008 266.13Q1123.81 261.94, 1128 377.74Q1147.78 325.51, 1200 345.29Q1221.33 294.62, 1272 315.94Q1285.42 257.37, 1344 270.79Q1389.04 243.83, 1416 288.86Q1448.91 201.77, 1536 234.68z" fill="rgba(11, 49, 77, 1)"></path><path d="M1536 560L0 560 L0 470.58Q-18.45 380.13, 72 361.67Q96.73 314.4, 144 339.14Q229.96 305.1, 264 391.06Q315 322.06, 384 373.07Q412.71 329.78, 456 358.49Q483.95 314.44, 528 342.39Q607.39 349.78, 600 429.18Q676.48 385.66, 720 462.14Q723.76 393.9, 792 397.66Q838.75 324.42, 912 371.17Q996.79 335.96, 1032 420.75Q1073.87 390.62, 1104 432.49Q1189.92 398.41, 1224 484.33Q1236.18 376.51, 1344 388.7Q1360.93 333.63, 1416 350.57Q1487.24 301.81, 1536 373.05z" fill="rgba(18, 69, 108, 1)"></path><path d="M1512 560L0 560 L0 526.25Q57.89 464.14, 120 522.04Q192.79 522.83, 192 595.61Q179.5 511.12, 264 498.62Q281.87 444.49, 336 462.36Q366.82 421.19, 408 452.01Q454.53 426.54, 480 473.07Q540.61 461.68, 552 522.29Q614.14 512.43, 624 574.58Q677.36 507.94, 744 561.3Q753.4 450.7, 864 460.1Q909.68 433.78, 936 479.46Q979.74 451.19, 1008 494.93Q1081.13 448.05, 1128 521.18Q1182.39 503.57, 1200 557.96Q1218.64 456.6, 1320 475.24Q1371.4 406.64, 1440 458.05Q1498.86 444.9, 1512 503.76z" fill="white"></path></g><defs><mask id="SvgjsMask1059"><rect width="1440" height="560" fill="#ffffff"></rect></mask></defs></svg>