<?xml version="1.0" standalone="no"?>
<!DOCTYPE svg PUBLIC "-//W3C//DTD SVG 20010904//EN"
 "http://www.w3.org/TR/2001/REC-SVG-20010904/DTD/svg10.dtd">
<svg version="1.0" xmlns="http://www.w3.org/2000/svg"
 width="617.000000pt" height="516.000000pt" viewBox="0 0 617.000000 516.000000"
 preserveAspectRatio="xMidYMid meet">
<metadata>
Created by potrace 1.16, written by Peter Selinger 2001-2019
</metadata>
<g transform="translate(0.000000,516.000000) scale(0.100000,-0.100000)"
fill="#000000" stroke="none">
<path d="M3100 4799 c-47 -19 -514 -202 -1095 -429 -115 -45 -293 -115 -395
-155 -102 -40 -236 -92 -297 -116 -62 -23 -113 -45 -113 -48 0 -4 73 -39 163
-80 89 -41 266 -123 392 -181 127 -59 397 -184 600 -278 204 -94 408 -188 455
-210 251 -117 336 -155 345 -155 6 0 64 25 130 55 66 31 156 73 200 93 44 20
256 118 470 217 215 99 494 228 620 287 127 59 299 138 382 176 84 39 153 73
153 76 0 3 -89 40 -197 82 -109 42 -297 115 -418 162 -121 48 -281 111 -355
139 -74 29 -247 97 -385 151 -549 215 -600 235 -605 234 -3 0 -25 -9 -50 -20z"/>
<path d="M1120 2637 l0 -1273 197 -104 c109 -58 247 -131 308 -163 60 -32 146
-78 190 -102 184 -99 949 -507 1060 -565 66 -35 139 -74 163 -87 l42 -25 -2
1348 -3 1348 -135 61 c-143 66 -1157 535 -1250 578 -239 112 -556 257 -562
257 -5 0 -8 -573 -8 -1273z m340 6 l240 -116 -1 -121 0 -121 -18 70 c-36 143
-86 207 -211 270 l-70 35 0 -155 0 -154 33 -9 c19 -5 41 -5 53 1 24 10 54 66
54 102 0 13 5 27 10 30 7 4 10 -67 10 -206 0 -117 -2 -210 -5 -208 -2 3 -11
38 -20 77 -22 107 -52 160 -107 188 l-28 15 0 -146 0 -146 75 -36 c60 -28 83
-34 113 -30 47 8 88 52 104 112 7 25 16 45 20 45 4 0 8 -58 8 -130 0 -71 -2
-130 -5 -130 -11 0 -505 250 -505 256 0 3 13 3 29 -1 23 -5 32 -2 45 17 14 19
16 58 16 256 0 259 -4 280 -61 325 -19 15 -31 27 -27 27 4 0 116 -52 248 -117z
m593 -273 c52 -26 70 -40 131 -112 27 -32 52 -58 55 -58 4 0 17 9 30 21 12 12
25 19 27 16 3 -3 7 -77 9 -164 2 -87 2 -147 -1 -133 -12 60 -59 189 -86 240
-64 115 -133 180 -195 180 -70 0 -97 -76 -97 -270 0 -186 33 -292 110 -360
101 -88 204 -78 254 25 12 25 25 44 27 41 10 -10 -42 -100 -69 -120 -38 -27
-111 -25 -169 4 -24 13 -71 51 -105 85 -194 201 -228 519 -64 606 45 24 90 24
143 -1z m652 -318 c31 -17 69 -51 101 -92 29 -35 58 -66 64 -68 6 -2 22 6 36
19 13 12 26 20 29 18 2 -3 7 -79 10 -170 l5 -164 -19 68 c-56 199 -149 345
-248 386 -51 21 -81 8 -106 -47 -20 -43 -22 -63 -22 -227 1 -165 2 -185 24
-239 13 -32 40 -77 60 -99 41 -45 120 -87 167 -87 44 0 96 38 119 87 11 23 23
42 28 43 16 0 -25 -77 -58 -107 -30 -29 -42 -33 -87 -33 -74 1 -126 28 -205
107 -113 113 -177 259 -177 403 0 94 17 141 72 193 56 53 119 56 207 9z"/>
<path d="M4959 3812 c-113 -54 -245 -116 -295 -138 -49 -23 -330 -153 -624
-289 -294 -136 -596 -276 -670 -310 l-135 -62 -3 -1347 c-1 -740 0 -1346 4
-1346 6 0 1896 1004 1932 1026 l22 14 0 1275 c0 1014 -3 1275 -12 1274 -7 -1
-106 -44 -219 -97z m69 -248 c37 -25 52 -67 52 -143 0 -88 -29 -168 -84 -227
-37 -40 -114 -79 -784 -399 -409 -195 -755 -355 -769 -355 -106 0 -146 156
-79 307 53 116 36 107 851 487 407 190 751 346 765 346 14 0 36 -7 48 -16z m1
-849 c34 -17 61 -78 61 -138 0 -91 -59 -224 -119 -266 -14 -10 -357 -185 -762
-390 -510 -257 -746 -371 -768 -371 -142 0 -147 272 -8 408 45 44 89 66 847
437 239 117 491 240 559 274 68 34 132 61 143 61 10 0 32 -7 47 -15z m43 -895
c16 -29 19 -50 16 -116 -5 -95 -38 -174 -97 -232 -54 -53 -1503 -814 -1553
-815 -94 -3 -135 122 -87 265 21 64 60 128 100 165 26 23 1449 759 1508 779
48 16 88 0 113 -46z"/>
</g>
</svg>
