<?xml version="1.0" encoding="utf-8"?>
<!-- Generator: Adobe Illustrator 25.1.0, SVG Export Plug-In . SVG Version: 6.00 Build 0)  -->
<svg version="1.2" baseProfile="tiny" id="Capa_1" xmlns="http://www.w3.org/2000/svg" xmlns:xlink="http://www.w3.org/1999/xlink"
	 x="0px" y="0px" viewBox="0 0 2125 3036" overflow="visible" xml:space="preserve">
<rect y="30.6" fill="#000DFF" width="2124.9" height="3005.4"/>
<g>
	<path fill="#0100E6" d="M645.4,2675.3c-145.2-83.5-296.7-123.3-445.3-74.3c-68,21.8-135.1,63.6-200.1,127.9V3036h1120.6
		c-153.9-127.1-306.5-260.7-461.6-353C654.5,2680.3,649.9,2678,645.4,2675.3z"/>
	<path fill="#0C00CC" d="M2124.9-27H0v2755.9c65.1-64.3,132.1-106.4,200.1-128.3c148.6-48.6,300.1-9.2,445.3,74.3
		c4.5,2.7,9,5.4,13.5,7.7c155.1,91.9,307.7,225.9,461.6,353h1004.3V-27z"/>
	<path fill="#1500B3" d="M635.3,2197.5c4.2,3.1,8.5,6.5,12.6,9.6c260.6,201,516.2,511.1,788.2,676.1
		c231.3,140.1,464.2,111.8,688.7-39.1V-27H0v2201.1c69.5-67.4,141.4-106.1,213.9-118.3C356.4,2030.6,498.9,2094.9,635.3,2197.5z"/>
	<path fill="#1A0099" d="M0-27v1644c73.8-70.4,150.7-104.5,227.6-106.1c136.5-3.1,269.9,86.9,397.5,208.7c4,3.8,7.8,7.7,11.8,11.5
		c243.8,237.4,485.7,559.4,746.9,735.5c247.9,167.3,499.7,131.7,740.9-48.2V-27H0z"/>
	<path fill="#1D0080" d="M241.4,966.2c130.4,23,254.9,134.8,373.6,276c3.7,4.2,7.3,8.8,11,13c227.1,274.1,455.1,606.8,705.6,795.2
		c264,198.3,535.7,156.2,793.2-56.7V-27H0v1084.3C78.4,982.3,160.2,952,241.4,966.2z"/>
	<path fill="#150074" d="M2124.9-27H0v521.9c82.7-80,169.6-105.3,255.2-73.5C379.6,467.7,495,604,604.9,764.4
		c3.5,5,6.8,10,10.2,14.9c210.4,310.5,424.6,654.3,664.4,854.6c279.6,233.6,572.1,187.6,845.4-63.6V-27H2124.9z"/>
	<path fill="#0D0067" d="M604.1,303.5c193.6,347.3,394,700.7,623.1,913.9c277,258.1,572.8,232.8,847.2-20.3
		c17-15.7,33.7-32.2,50.6-49.4V-27H382.6C457,54.6,527,166.8,594.7,287C597.9,292.4,600.9,298.1,604.1,303.5z"/>
	<path fill="#07005B" d="M2124.9-27H661.4c156.8,328.5,323.4,629.8,513.7,827.8c254.7,264.9,531.2,286,790.2,80.8
		c54.2-42.9,107.7-96.5,159.8-159.7V-27H2124.9z"/>
	<path fill="#03004E" d="M1855.9,565.7c62.7-40.6,124.3-96.9,184.1-167.7c28.8-34.1,57.1-72,84.9-112.9V-27H854.5
		c83.5,159.7,172.2,299.4,268.4,411.2C1355.1,654.9,1612.5,723.8,1855.9,565.7z"/>
	<path fill="#000142" d="M1746.8,250.2c100-48.2,197.7-142,287.9-277.2h-960.2C1284,244.9,1520.2,359.7,1746.8,250.2z"/>
</g>
</svg>
